<svg width="150" height="150" viewBox="0 0 150 150" fill="none" xmlns="http://www.w3.org/2000/svg">
<path d="M121.351 52.0459C121.649 54.4512 123.621 56.25 125.965 56.25H130.687C133.474 56.25 135.691 53.7393 135.375 50.874C134.104 39.416 128.813 29.0391 120.688 22.4092C115.6 18.2578 112.245 11.6426 111.319 4.20117C111.023 1.79883 109.049 0 106.708 0H101.985C99.1992 0 96.9785 2.51074 97.2978 5.37598C98.5693 16.834 103.86 27.2109 111.984 33.8408C117.07 37.9922 120.428 44.6074 121.351 52.0459V52.0459ZM89.71 52.0459C90.0088 54.4512 91.9805 56.25 94.3242 56.25H99.0469C101.833 56.25 104.051 53.7393 103.734 50.874C102.463 39.416 97.1719 29.0391 89.0479 22.4092C83.959 18.2578 80.6045 11.6426 79.6787 4.20117C79.3828 1.79883 77.4082 0 75.0674 0H70.3447C67.5586 0 65.3379 2.51074 65.6572 5.37598C66.9287 16.834 72.2197 27.2109 80.3437 33.8408C85.4297 37.9922 88.7871 44.6074 89.71 52.0459V52.0459ZM140.625 75H75L42.501 50.625C39.2555 48.1906 35.308 46.8748 31.251 46.875H18.75C8.39356 46.875 0 55.2686 0 65.625V131.25C0 141.606 8.39356 150 18.75 150H131.25C141.606 150 150 141.606 150 131.25V84.375C150 79.1982 145.802 75 140.625 75ZM37.5 128.906C37.5 130.201 36.4512 131.25 35.1562 131.25H30.4688C29.1738 131.25 28.125 130.201 28.125 128.906V96.0938C28.125 94.7988 29.1738 93.75 30.4688 93.75H35.1562C36.4512 93.75 37.5 94.7988 37.5 96.0938V128.906ZM65.625 128.906C65.625 130.201 64.5762 131.25 63.2812 131.25H58.5938C57.2988 131.25 56.25 130.201 56.25 128.906V96.0938C56.25 94.7988 57.2988 93.75 58.5938 93.75H63.2812C64.5762 93.75 65.625 94.7988 65.625 96.0938V128.906ZM93.75 128.906C93.75 130.201 92.7012 131.25 91.4062 131.25H86.7188C85.4238 131.25 84.375 130.201 84.375 128.906V96.0938C84.375 94.7988 85.4238 93.75 86.7188 93.75H91.4062C92.7012 93.75 93.75 94.7988 93.75 96.0938V128.906ZM121.875 128.906C121.875 130.201 120.826 131.25 119.531 131.25H114.844C113.549 131.25 112.5 130.201 112.5 128.906V96.0938C112.5 94.7988 113.549 93.75 114.844 93.75H119.531C120.826 93.75 121.875 94.7988 121.875 96.0938V128.906ZM18.75 37.5C29.1064 37.5 37.5 29.1064 37.5 18.75C37.5 8.39356 29.1064 0 18.75 0C8.39356 0 0 8.39356 0 18.75C0 29.1064 8.39356 37.5 18.75 37.5Z" fill="#AE5F3D"/>
</svg>
