<svg width="160" height="94" viewBox="0 0 160 94" fill="none" xmlns="http://www.w3.org/2000/svg">
<path d="M90.8607 0.125C65.8691 0.125 44.0441 16.1709 31.8969 29.8994L7.63852 10.5488C4.26907 7.85938 -0.76148 10.7246 0.0996306 14.8438L6.8163 47L0.0968528 79.1592C-0.764258 83.2783 4.2663 86.1406 7.63574 83.4541L31.8941 64.1035C44.0413 77.8291 65.8691 93.875 90.8607 93.875C129.044 93.875 160 56.375 160 47C160 37.625 129.044 0.125 90.8607 0.125ZM115.147 54.0312C111.466 54.0312 108.48 50.8818 108.48 47C108.48 43.1152 111.466 39.9688 115.147 39.9688C118.83 39.9688 121.814 43.1152 121.814 47C121.814 50.8818 118.827 54.0312 115.147 54.0312Z" fill="#AE5F3D"/>
</svg>
