<svg width="170" height="150" viewBox="0 0 170 150" fill="none" xmlns="http://www.w3.org/2000/svg">
<path d="M106.25 28.125C108.772 28.125 111.237 27.3003 113.333 25.755C115.43 24.2098 117.064 22.0136 118.029 19.444C118.994 16.8744 119.247 14.0469 118.755 11.319C118.263 8.59119 117.049 6.08549 115.266 4.11882C113.482 2.15214 111.211 0.812818 108.737 0.270213C106.264 -0.272391 103.701 0.00609308 101.371 1.07045C99.041 2.13481 97.0497 3.93723 95.6487 6.2498C94.2477 8.56237 93.5 11.2812 93.5 14.0625C93.5 17.7921 94.8433 21.369 97.2343 24.0062C99.6254 26.6434 102.868 28.125 106.25 28.125ZM105.187 63.5742C106.695 64.9055 108.569 65.629 110.5 65.625H127.5C129.754 65.625 131.916 64.6373 133.51 62.8791C135.104 61.121 136 58.7364 136 56.25C136 53.7636 135.104 51.379 133.51 49.6209C131.916 47.8627 129.754 46.875 127.5 46.875H113.48L94.5625 30.1758C93.0184 28.8086 91.0895 28.0801 89.1098 28.1165C87.13 28.1529 85.2242 28.9519 83.7223 30.375L53.9723 58.5C52.9758 59.4423 52.1907 60.6264 51.6786 61.9594C51.1665 63.2924 50.9412 64.7381 51.0204 66.1832C51.0997 67.6283 51.4813 69.0335 52.1354 70.2887C52.7895 71.5439 53.6982 72.615 54.7904 73.418L76.5 89.3906V121.875C76.5 124.361 77.3955 126.746 78.9895 128.504C80.5836 130.262 82.7456 131.25 85 131.25C87.2543 131.25 89.4163 130.262 91.0104 128.504C92.6044 126.746 93.5 124.361 93.5 121.875V84.375C93.4997 82.8319 93.1541 81.3127 92.4938 79.9522C91.8335 78.5918 90.8789 77.4321 89.7148 76.5762L78.7286 68.499L94.2012 53.874L105.187 63.5742ZM136 75C129.275 75 122.702 77.1993 117.111 81.3199C111.519 85.4405 107.161 91.2971 104.588 98.1494C102.015 105.002 101.341 112.542 102.653 119.816C103.965 127.09 107.203 133.772 111.958 139.017C116.713 144.261 122.772 147.833 129.367 149.279C135.962 150.726 142.798 149.984 149.011 147.145C155.224 144.307 160.534 139.501 164.27 133.334C168.006 127.167 170 119.917 170 112.5C170 102.554 166.418 93.0161 160.042 85.9835C153.665 78.9509 145.017 75 136 75ZM136 131.25C132.638 131.25 129.351 130.15 126.555 128.09C123.76 126.03 121.581 123.101 120.294 119.675C119.007 116.249 118.671 112.479 119.327 108.842C119.983 105.205 121.602 101.864 123.979 99.2418C126.357 96.6195 129.386 94.8338 132.683 94.1103C135.981 93.3868 139.399 93.7581 142.506 95.1773C145.612 96.5964 148.267 98.9996 150.135 102.083C152.003 105.166 153 108.792 153 112.5C153 117.473 151.209 122.242 148.021 125.758C144.833 129.275 140.509 131.25 136 131.25ZM34 75C27.2754 75 20.7018 77.1993 15.1106 81.3199C9.51929 85.4405 5.16143 91.2971 2.58805 98.1494C0.0146705 105.002 -0.658643 112.542 0.653255 119.816C1.96515 127.09 5.20334 133.772 9.95832 139.017C14.7133 144.261 20.7715 147.833 27.3669 149.279C33.9622 150.726 40.7985 149.984 47.0112 147.145C53.2239 144.307 58.534 139.501 62.2699 133.334C66.0059 127.167 68 119.917 68 112.5C68 102.554 64.4178 93.0161 58.0416 85.9835C51.6654 78.9509 43.0173 75 34 75ZM34 131.25C30.6377 131.25 27.3509 130.15 24.5553 128.09C21.7596 126.03 19.5807 123.101 18.294 119.675C17.0073 116.249 16.6707 112.479 17.3266 108.842C17.9826 105.205 19.6016 101.864 21.9791 99.2418C24.3566 96.6195 27.3857 94.8338 30.6834 94.1103C33.9811 93.3868 37.3992 93.7581 40.5056 95.1773C43.6119 96.5964 46.267 98.9996 48.1349 102.083C50.0029 105.166 51 108.792 51 112.5C51 117.473 49.2089 122.242 46.0208 125.758C42.8327 129.275 38.5086 131.25 34 131.25Z" fill="#AE5F3D"/>
</svg>
